<?xml version="1.0" standalone="no"?>
<!DOCTYPE svg PUBLIC "-//W3C//DTD SVG 20010904//EN"
 "http://www.w3.org/TR/2001/REC-SVG-20010904/DTD/svg10.dtd">
<svg version="1.0" xmlns="http://www.w3.org/2000/svg"
 width="500.000000pt" height="500.000000pt" viewBox="0 0 500.000000 500.000000"
 preserveAspectRatio="xMidYMid meet">
<metadata>
Created by potrace 1.11, written by Peter Selinger 2001-2013
</metadata>
<g transform="translate(0.000000,500.000000) scale(0.100000,-0.100000)"
fill="#000000" stroke="none">
<path d="M0 2500 l0 -2500 2500 0 2500 0 0 2500 0 2500 -2500 0 -2500 0 0
-2500z m2835 1876 c285 -45 510 -145 673 -301 163 -154 256 -318 302 -535 18
-81 36 -230 29 -230 -121 -6 -664 -30 -689 -30 l-35 0 -17 76 c-10 42 -33 109
-53 149 -92 191 -241 274 -525 291 -326 20 -605 -95 -655 -270 -21 -73 -14
-142 23 -209 70 -130 242 -206 762 -337 590 -149 831 -258 1026 -462 177 -185
263 -419 264 -719 0 -339 -152 -653 -412 -849 -228 -172 -517 -255 -933 -267
-534 -15 -904 94 -1169 347 -168 160 -267 330 -340 582 -26 89 -60 277 -53
285 4 4 658 73 692 73 6 0 17 -28 24 -61 46 -225 171 -415 334 -507 180 -103
480 -130 731 -66 248 64 427 282 401 489 -16 126 -86 211 -229 280 -100 48
-168 69 -586 179 -333 87 -483 137 -638 211 -251 120 -416 280 -518 501 -63
136 -77 208 -78 394 0 151 3 172 28 254 131 431 470 677 1026 745 110 14 496
5 615 -13z"/>
</g>
</svg>
