<?xml version="1.0" encoding="UTF-8" standalone="no"?>
<!DOCTYPE svg PUBLIC "-//W3C//DTD SVG 1.1//EN" "http://www.w3.org/Graphics/SVG/1.1/DTD/svg11.dtd">
<svg version="1.1" xmlns="http://www.w3.org/2000/svg" xmlns:xlink="http://www.w3.org/1999/xlink" preserveAspectRatio="xMidYMid meet" viewBox="0 0 640 640" width="500" height="500"><defs><path d="M0 212.71L640 212.71L640 526.03L0 526.03L0 212.71Z" id="dCYGODAmr"></path><path d="M638.32 212.71L578.02 172.78L62.75 172.78L0 212.71L638.32 212.71Z" id="bwUm6Wcgt"></path><path d="M-2 403.28L641.51 403.28L641.51 410.15L-2 410.15L-2 403.28Z" id="e2BwoCrmqM"></path><path d="M159.07 212.71L162.89 212.71L162.89 526.03L159.07 526.03L159.07 212.71Z" id="e6BOOmT5eu"></path><path d="M477.07 212.71L480.89 212.71L480.89 526.03L477.07 526.03L477.07 212.71Z" id="a4YtmovRT"></path><path d="M169.97 212.71L470.47 212.71L470.47 244.77L169.97 244.77L169.97 212.71Z" id="axv2I7TpO"></path><path d="M-1.62 212.71L641.89 212.71L641.89 219.58L-1.62 219.58L-1.62 212.71Z" id="a41GruPKJv"></path><path d="M169.97 403.28L169.97 246.37L184.47 246.37L184.47 403.28L169.97 403.28Z" id="b9PkVYjoc"></path><path d="M455.97 403.28L455.97 246.37L470.47 246.37L470.47 403.28L455.97 403.28Z" id="b8AdS4Mwkr"></path><path d="M261.97 403.28L261.97 246.37L276.47 246.37L276.47 403.28L261.97 403.28Z" id="aER4WDxKF"></path><path d="M360.97 403.28L360.97 246.37L375.47 246.37L375.47 403.28L360.97 403.28Z" id="a15fPBMD2e"></path><path d="M395.35 176.11L470.47 212.1L320.22 212.1L169.97 212.1L245.09 176.11L320.22 140.12L395.35 176.11Z" id="b2VZEat3O5"></path><path d="M337.62 178.22C337.62 189.24 329.29 198.18 319.02 198.18C308.76 198.18 300.43 189.24 300.43 178.22C300.43 167.2 308.76 158.26 319.02 158.26C329.29 158.26 337.62 167.2 337.62 178.22Z" id="b1DEWTuGlm"></path><path d="M293.52 178.72L343.62 178.72L343.62 181.5L293.52 181.5L293.52 178.72Z" id="gQFTecLtd"></path><path d="M287.52 185.72L337.62 185.72L337.62 188.5L287.52 188.5L287.52 185.72Z" id="knUruNp3"></path><path d="M296.52 191.72L346.62 191.72L346.62 194.5L296.52 194.5L296.52 191.72Z" id="d330qIu1U"></path><path d="M297.52 172.72L347.62 172.72L347.62 175.5L297.52 175.5L297.52 172.72Z" id="iCl0dhYeb"></path><path d="M297.52 166.72L347.62 166.72L347.62 169.5L297.52 169.5L297.52 166.72Z" id="bUBKeBQsq"></path><path d="M294.52 161.72L344.62 161.72L344.62 164.5L294.52 164.5L294.52 161.72Z" id="g3lTmIyR7"></path><path d="M24.58 427.63L74.2 427.63L74.2 490.23L24.58 490.23L24.58 427.63Z" id="i28cnJrNf2"></path><path d="M37.27 490.23L37.27 427.63" id="f2QVEEGF4d"></path><path d="M60.46 490.23L60.46 427.63" id="d1iZsdrAmJ"></path><path d="M37.27 432.21L60.46 432.21L60.46 474.2L37.27 474.2L37.27 432.21Z" id="f15k6IRrw"></path><path d="M60.46 450.53L37.27 450.53" id="bemF9YZOR"></path><path d="M48.86 474.85L48.86 432.21" id="c2EMixN564"></path><path d="M54.8 474.2L54.8 432.21" id="adRKu7xJ3"></path><path d="M42.4 474.85L42.4 432.21" id="c1DV6vRl1E"></path><path d="M60.46 441.05L37.27 441.05" id="b4SiJeN68"></path><path d="M60 461.45L37.27 461.45" id="b55UjpXCoh"></path><path d="M104.58 427.63L154.2 427.63L154.2 490.23L104.58 490.23L104.58 427.63Z" id="a4al0SO3Yd"></path><path d="M117.27 490.23L117.27 427.63" id="a1UEXX4qOc"></path><path d="M140.46 490.23L140.46 427.63" id="b21Bmehhsa"></path><path d="M117.27 432.21L140.46 432.21L140.46 474.2L117.27 474.2L117.27 432.21Z" id="hFPIRgwKa"></path><path d="M140.46 450.53L117.27 450.53" id="a3CJiDWIh"></path><path d="M128.86 474.85L128.86 432.21" id="batka5aW0"></path><path d="M134.8 474.2L134.8 432.21" id="a15mmdvhU"></path><path d="M122.4 474.85L122.4 432.21" id="gglKbt5Aj"></path><path d="M140.46 441.05L117.27 441.05" id="b16qmX7pdH"></path><path d="M140 461.45L117.27 461.45" id="aEmb1vnsR"></path><path d="M486.08 427.63L535.7 427.63L535.7 490.23L486.08 490.23L486.08 427.63Z" id="b1usLRXbe1"></path><path d="M498.77 490.23L498.77 427.63" id="bjbEhGfzV"></path><path d="M521.96 490.23L521.96 427.63" id="b15RHyOAiF"></path><path d="M498.77 432.21L521.96 432.21L521.96 474.2L498.77 474.2L498.77 432.21Z" id="a2IWjadeFi"></path><path d="M521.96 450.53L498.77 450.53" id="bMvbTgK5e"></path><path d="M510.36 474.85L510.36 432.21" id="a43QThj8p"></path><path d="M516.3 474.2L516.3 432.21" id="a1i6H0ktCh"></path><path d="M503.9 474.85L503.9 432.21" id="bt9ZILOju"></path><path d="M521.96 441.05L498.77 441.05" id="h33gydSoBR"></path><path d="M521.5 461.45L498.77 461.45" id="b3h7KgWUkp"></path><path d="M566.08 427.63L615.7 427.63L615.7 490.23L566.08 490.23L566.08 427.63Z" id="f5dbXYm08w"></path><path d="M578.77 490.23L578.77 427.63" id="bIDpDYXF"></path><path d="M601.96 490.23L601.96 427.63" id="a1G5yYwpgo"></path><path d="M578.77 432.21L601.96 432.21L601.96 474.2L578.77 474.2L578.77 432.21Z" id="a51utCqo0T"></path><path d="M601.96 450.53L578.77 450.53" id="b5yAPYnjo"></path><path d="M590.36 474.85L590.36 432.21" id="b8BzLoNiEC"></path><path d="M596.3 474.2L596.3 432.21" id="e2nXfG21Ef"></path><path d="M583.9 474.85L583.9 432.21" id="d9mDF7Vd4"></path><path d="M601.96 441.05L578.77 441.05" id="a1H7ZuWiMV"></path><path d="M601.5 461.45L578.77 461.45" id="abidfiRoV"></path><path d="M295.86 414.45L340.97 414.45L340.97 524.95L295.86 524.95L295.86 414.45Z" id="a3n8UX8BQr"></path><path d="M334.28 432.71L360.97 432.71L360.97 524.95L334.28 524.95L334.28 432.71Z" id="c1E9t0Htp2"></path><path d="M277.03 432.71L295.86 432.71L295.86 524.95L277.03 524.95L277.03 432.71Z" id="b19dInUjKx"></path><path d="M297.99 416.95L338.97 416.95L338.97 429.95L297.99 429.95L297.99 416.95Z" id="a5PSsARCiY"></path><path d="M299.77 437.18L316.87 437.18L316.87 469.24L299.77 469.24L299.77 437.18Z" id="c19PXyabYj"></path><path d="M319.87 437.18L336.97 437.18L336.97 469.24L319.87 469.24L319.87 437.18Z" id="dnRnv5ADI"></path><path d="M300.89 518.45L335.85 518.45L335.85 476.85L300.89 476.85L300.89 518.45Z" id="aFuqZ9x2I"></path><path d="M295.86 524.95L295.86 432.21" id="c15StOCu0p"></path><path d="" id="aSB49bKIC"></path><path d="M340.97 524.95L340.97 432.21" id="c3IhJBGqzf"></path><path d="M340.97 432.21L295.86 432.21" id="b3fZQWsZPY"></path><path d="M286.84 410.45L348.34 410.45L348.34 414.45L286.84 414.45L286.84 410.45Z" id="bDp8KxhJY"></path><path d="M400.41 427.63L431.16 427.63L431.16 490.23L400.41 490.23L400.41 427.63Z" id="c2fxM31fkw"></path><path d="M404.02 432.21L427.21 432.21L427.21 474.2L404.02 474.2L404.02 432.21Z" id="dn2yZWOHJ"></path><path d="M427.21 450.53L404.02 450.53" id="aWwssqcZ4"></path><path d="M415.61 474.85L415.61 432.21" id="a9f5UIlgD"></path><path d="M421.55 474.2L421.55 432.21" id="e3devtF1G1"></path><path d="M409.15 474.85L409.15 432.21" id="b6pDRLGtV"></path><path d="M427.21 441.05L404.02 441.05" id="i1hNp1HJgT"></path><path d="M426.75 461.45L404.02 461.45" id="b2GV2bQc6l"></path><path d="M208.41 427.63L239.16 427.63L239.16 490.23L208.41 490.23L208.41 427.63Z" id="b1MkaApYax"></path><path d="M212.02 432.21L235.21 432.21L235.21 474.2L212.02 474.2L212.02 432.21Z" id="i1ogTHiQw"></path><path d="M235.21 450.53L212.02 450.53" id="buuUXIazG"></path><path d="M223.61 474.85L223.61 432.21" id="a11zv0mhZM"></path><path d="M229.55 474.2L229.55 432.21" id="c89myjEtX"></path><path d="M217.15 474.85L217.15 432.21" id="bj1pN6MOg"></path><path d="M235.21 441.05L212.02 441.05" id="f9ebsTbiL"></path><path d="M234.75 461.45L212.02 461.45" id="b1LwuDN0x"></path><path d="M207.97 412.45L238.97 412.45L238.97 424.7L207.97 424.7L207.97 412.45Z" id="a13V53atjR"></path><path d="M400.11 412.45L431.11 412.45L431.11 424.7L400.11 424.7L400.11 412.45Z" id="d7piRpiwO"></path><path d="M168.47 524.95L168.47 410.45" id="e2Zljq8gDY"></path><path d="M185.97 526.03L185.97 410.15" id="e2LxmSH0sP"></path><path d="" id="a4WkeZCqWD"></path><path d="M185.97 512.7L168.47 512.7L168.47 501.2L185.97 501.2L187.47 490.23L168.47 490.23L168.47 478.83L185.97 478.83L185.97 466.7L168.47 466.7L168.47 453.21L185.97 453.53L185.97 441.05L168.47 441.05L168.47 429.95L185.97 429.95L185.97 418.57L168.47 418.57" id="jM1XDFBk"></path><path d="M453.47 524.95L453.47 410.45" id="c36m3g4Lj"></path><path d="M470.97 526.03L470.97 410.15" id="e1ARoIic5"></path><path d="" id="j3AirM6IRG"></path><path d="M470.97 512.7L453.47 512.7L453.47 501.2L470.97 501.2L472.47 490.23L453.47 490.23L453.47 478.83L470.97 478.83L470.97 466.7L453.47 466.7L453.47 453.21L470.97 453.53L470.97 441.05L453.47 441.05L453.47 429.95L470.97 429.95L470.97 418.57L453.47 418.57" id="brDrDyDjO"></path><path d="M400.41 340.68L431.16 340.68L431.16 403.28L400.41 403.28L400.41 340.68Z" id="fPv7BOEzW"></path><path d="M404.02 345.26L427.21 345.26L427.21 387.24L404.02 387.24L404.02 345.26Z" id="a69puuSCtA"></path><path d="M427.21 363.58L404.02 363.58" id="a3JM5M9b2"></path><path d="M415.61 387.9L415.61 345.26" id="a3LQbJ5QuR"></path><path d="M421.55 387.24L421.55 345.26" id="g5ZetQdLA"></path><path d="M409.15 387.9L409.15 345.26" id="d81RHy9qn"></path><path d="M427.21 354.1L404.02 354.1" id="a1Wpr7VKCv"></path><path d="M426.75 374.5L404.02 374.5" id="fjidqnE6"></path><path d="M207.97 340.68L238.72 340.68L238.72 403.28L207.97 403.28L207.97 340.68Z" id="b36lXI5wBP"></path><path d="M211.58 345.26L234.77 345.26L234.77 387.24L211.58 387.24L211.58 345.26Z" id="caV4wjcSo"></path><path d="M234.77 363.58L211.58 363.58" id="a1xt7iOLTg"></path><path d="M223.18 387.9L223.18 345.26" id="a4moGKkI4Z"></path><path d="M229.11 387.24L229.11 345.26" id="a91zJUwRDY"></path><path d="M216.71 387.9L216.71 345.26" id="d1GqWeatKE"></path><path d="M234.77 354.1L211.58 354.1" id="gv7ni1O29"></path><path d="M234.31 374.5L211.58 374.5" id="bWNPnuZmu"></path><path d="M303 340.68L333.75 340.68L333.75 403.28L303 403.28L303 340.68Z" id="bq0tnKI4A"></path><path d="M306.61 345.26L329.8 345.26L329.8 387.24L306.61 387.24L306.61 345.26Z" id="b1bxqKXPw6"></path><path d="M329.8 363.58L306.61 363.58" id="a3VADJGocF"></path><path d="M318.2 387.9L318.2 345.26" id="i1EOvqYKRd"></path><path d="M324.14 387.24L324.14 345.26" id="a2Tsu8Y3yw"></path><path d="M311.74 387.9L311.74 345.26" id="b1rugMwD1"></path><path d="M329.8 354.1L306.61 354.1" id="abHGy1XLU"></path><path d="M329.34 374.5L306.61 374.5" id="cksGE5a6p"></path><path d="M207.97 246.37L238.72 246.37L238.72 298.47L207.97 298.47L207.97 246.37Z" id="b1HkBOWSx9"></path><path d="M211.58 250.95L234.77 250.95L234.77 292.94L211.58 292.94L211.58 250.95Z" id="a3D0RxZUMn"></path><path d="M234.77 269.27L211.58 269.27" id="g9TYMaqyQ"></path><path d="M223.18 293.59L223.18 250.95" id="bSvyyzgio"></path><path d="M229.11 292.94L229.11 250.95" id="b19u2UI2CP"></path><path d="M216.71 293.59L216.71 250.95" id="b1hVuoYpdJ"></path><path d="M234.77 259.79L211.58 259.79" id="b2MkuGVLlo"></path><path d="M234.31 280.19L211.58 280.19" id="f1IodLz7I"></path><path d="M303 246.37L333.75 246.37L333.75 298.47L303 298.47L303 246.37Z" id="h2Xz7XBZ6Y"></path><path d="M306.61 250.95L329.8 250.95L329.8 292.94L306.61 292.94L306.61 250.95Z" id="a7pPOLwfT"></path><path d="M329.8 269.27L306.61 269.27" id="b89nvs4TJu"></path><path d="M318.2 293.59L318.2 250.95" id="a1UqZ7aE9B"></path><path d="M324.14 292.94L324.14 250.95" id="a62AslM7Lz"></path><path d="M311.74 293.59L311.74 250.95" id="c2v9CfokSd"></path><path d="M329.8 259.79L306.61 259.79" id="c1456sklod"></path><path d="M329.34 280.19L306.61 280.19" id="b1liUi3V6Q"></path><path d="M400.41 246.37L431.16 246.37L431.16 298.47L400.41 298.47L400.41 246.37Z" id="d6zv9ePCL4"></path><path d="M404.02 250.95L427.21 250.95L427.21 292.94L404.02 292.94L404.02 250.95Z" id="baKuq9dGx"></path><path d="M427.21 269.27L404.02 269.27" id="diMqRzUUY"></path><path d="M415.61 293.59L415.61 250.95" id="c5LWEpC3vV"></path><path d="M421.55 292.94L421.55 250.95" id="b29WJYPA09"></path><path d="M409.15 293.59L409.15 250.95" id="ezuVGWvq"></path><path d="M427.21 259.79L404.02 259.79" id="a2IHh0IWnl"></path><path d="M426.75 280.19L404.02 280.19" id="a3xC7LLJxh"></path><path d="M113.49 340.68L144.24 340.68L144.24 392.78L113.49 392.78L113.49 340.68Z" id="e5FjTvrwl"></path><path d="M117.1 345.26L140.29 345.26L140.29 387.24L117.1 387.24L117.1 345.26Z" id="e72lyriVby"></path><path d="M140.29 363.58L117.1 363.58" id="a1yGIWoBVD"></path><path d="M128.69 387.9L128.69 345.26" id="a1OoGR487G"></path><path d="M134.63 387.24L134.63 345.26" id="aMGRGRJJ2"></path><path d="M122.23 387.9L122.23 345.26" id="h1CYbIDAaG"></path><path d="M140.29 354.1L117.1 354.1" id="b1ssHw1078"></path><path d="M139.83 374.5L117.1 374.5" id="l7XkI7Ov5W"></path><path d="M104.58 342.07L112.08 342.07L112.08 390.08L104.58 390.08L104.58 342.07Z" id="e4Tp0ft6R9"></path><path d="M145.7 342.57L153.2 342.57L153.2 390.58L145.7 390.58L145.7 342.57Z" id="c4TpM7LQLh"></path><path d="M34.49 340.68L65.24 340.68L65.24 392.78L34.49 392.78L34.49 340.68Z" id="a91C93xHQ6"></path><path d="M38.1 345.26L61.29 345.26L61.29 387.24L38.1 387.24L38.1 345.26Z" id="a1mlC2a51h"></path><path d="M61.29 363.58L38.1 363.58" id="e1A76ps3cX"></path><path d="M49.69 387.9L49.69 345.26" id="b1S6QsU6ue"></path><path d="M55.63 387.24L55.63 345.26" id="ckS6F01Vn"></path><path d="M43.23 387.9L43.23 345.26" id="a7tSvQgMc3"></path><path d="M61.29 354.1L38.1 354.1" id="d8Qk0ZNSnd"></path><path d="M60.83 374.5L38.1 374.5" id="a11lqKIYwM"></path><path d="M25.58 342.07L33.08 342.07L33.08 390.08L25.58 390.08L25.58 342.07Z" id="absBTPZYX0"></path><path d="M66.7 342.57L74.2 342.57L74.2 390.58L66.7 390.58L66.7 342.57Z" id="bhFqF7PMa"></path><path d="M34.49 246.37L65.24 246.37L65.24 298.47L34.49 298.47L34.49 246.37Z" id="aVLtDmmJx"></path><path d="M38.1 250.95L61.29 250.95L61.29 292.94L38.1 292.94L38.1 250.95Z" id="a69A7oSVU"></path><path d="M61.29 269.27L38.1 269.27" id="aqQsct4tQ"></path><path d="M49.69 293.59L49.69 250.95" id="acVQ4X31X"></path><path d="M55.63 292.94L55.63 250.95" id="f1PTXHSY0"></path><path d="M43.23 293.59L43.23 250.95" id="dQ1jahstx"></path><path d="M61.29 259.79L38.1 259.79" id="a2Na7zOj10"></path><path d="M60.83 280.19L38.1 280.19" id="e16BVA2Ty"></path><path d="M25.58 247.76L33.08 247.76L33.08 295.77L25.58 295.77L25.58 247.76Z" id="d2KQGqDyDa"></path><path d="M66.7 248.26L74.2 248.26L74.2 296.27L66.7 296.27L66.7 248.26Z" id="a2q6bONRIS"></path><path d="M113.49 246.37L144.24 246.37L144.24 298.47L113.49 298.47L113.49 246.37Z" id="bRMUyahOH"></path><path d="M117.1 250.95L140.29 250.95L140.29 292.94L117.1 292.94L117.1 250.95Z" id="d1z361dddW"></path><path d="M140.29 269.27L117.1 269.27" id="j40n1m8ARn"></path><path d="M128.69 293.59L128.69 250.95" id="c25k0Zyuws"></path><path d="M134.63 292.94L134.63 250.95" id="c8dKARTvt"></path><path d="M122.23 293.59L122.23 250.95" id="e3IiXepfCK"></path><path d="M140.29 259.79L117.1 259.79" id="hXMCAh1E"></path><path d="M139.83 280.19L117.1 280.19" id="a1sBSgIhXN"></path><path d="M104.58 247.76L112.08 247.76L112.08 295.77L104.58 295.77L104.58 247.76Z" id="bftwzN7h"></path><path d="M145.7 248.26L153.2 248.26L153.2 296.27L145.7 296.27L145.7 248.26Z" id="f1OQ6unFlf"></path><path d="M494.99 340.68L525.74 340.68L525.74 392.78L494.99 392.78L494.99 340.68Z" id="jnlOMxOGN"></path><path d="M498.6 345.26L521.79 345.26L521.79 387.24L498.6 387.24L498.6 345.26Z" id="a2gCgrb6wB"></path><path d="M521.79 363.58L498.6 363.58" id="aduKvM2B4"></path><path d="M510.19 387.9L510.19 345.26" id="epFZo0r2v"></path><path d="M516.13 387.24L516.13 345.26" id="c19eNLadOy"></path><path d="M503.73 387.9L503.73 345.26" id="a6TL5zZPV7"></path><path d="M521.79 354.1L498.6 354.1" id="c2kfOb4Eh"></path><path d="M521.33 374.5L498.6 374.5" id="b18m2hP33Z"></path><path d="M486.08 342.07L493.58 342.07L493.58 390.08L486.08 390.08L486.08 342.07Z" id="a320sn4EPh"></path><path d="M527.2 342.57L534.7 342.57L534.7 390.58L527.2 390.58L527.2 342.57Z" id="b1BIowtFeP"></path><path d="M574.99 340.68L605.74 340.68L605.74 392.78L574.99 392.78L574.99 340.68Z" id="hZ8betk82"></path><path d="M578.6 345.26L601.79 345.26L601.79 387.24L578.6 387.24L578.6 345.26Z" id="a1Ei5gFixN"></path><path d="M601.79 363.58L578.6 363.58" id="bs2fcKPwE"></path><path d="M590.19 387.9L590.19 345.26" id="a3JqL4gd3k"></path><path d="M596.13 387.24L596.13 345.26" id="d68tKvktkN"></path><path d="M583.73 387.9L583.73 345.26" id="a2d63P7ww8"></path><path d="M601.79 354.1L578.6 354.1" id="cWq6tpBrh"></path><path d="M601.33 374.5L578.6 374.5" id="c31GHkf4N"></path><path d="M566.08 342.07L573.58 342.07L573.58 390.08L566.08 390.08L566.08 342.07Z" id="aBK1kk1v0"></path><path d="M607.2 342.57L614.7 342.57L614.7 390.58L607.2 390.58L607.2 342.57Z" id="befKFtxul"></path><path d="M494.99 246.37L525.74 246.37L525.74 298.47L494.99 298.47L494.99 246.37Z" id="a62cu8MWY8"></path><path d="M498.6 250.95L521.79 250.95L521.79 292.94L498.6 292.94L498.6 250.95Z" id="b1Uev8bi11"></path><path d="M521.79 269.27L498.6 269.27" id="adXWoiHZa"></path><path d="M510.19 293.59L510.19 250.95" id="e1k41EEQ42"></path><path d="M516.13 292.94L516.13 250.95" id="b1hgYd5D0E"></path><path d="M503.73 293.59L503.73 250.95" id="b5xSYyydOi"></path><path d="M521.79 259.79L498.6 259.79" id="cAjwHdzrz"></path><path d="M521.33 280.19L498.6 280.19" id="evlnIdtZt"></path><path d="M486.08 247.76L493.58 247.76L493.58 295.77L486.08 295.77L486.08 247.76Z" id="aaOeCVNch6"></path><path d="M527.2 248.26L534.7 248.26L534.7 296.27L527.2 296.27L527.2 248.26Z" id="a1aDZU8qh5"></path><path d="M574.99 246.37L605.74 246.37L605.74 298.47L574.99 298.47L574.99 246.37Z" id="b1VNwo6Jbt"></path><path d="M578.6 250.95L601.79 250.95L601.79 292.94L578.6 292.94L578.6 250.95Z" id="aKGeOAFXm"></path><path d="M601.79 269.27L578.6 269.27" id="cxsNpohY"></path><path d="M590.19 293.59L590.19 250.95" id="b1CPJMzSn"></path><path d="M596.13 292.94L596.13 250.95" id="c4JT46CvX3"></path><path d="M583.73 293.59L583.73 250.95" id="d3SPgNkB3w"></path><path d="M601.79 259.79L578.6 259.79" id="c3gUGE2MpT"></path><path d="M601.33 280.19L578.6 280.19" id="aalEmIIfN"></path><path d="M566.08 247.76L573.58 247.76L573.58 295.77L566.08 295.77L566.08 247.76Z" id="a7tn1eiw2"></path><path d="M607.2 248.26L614.7 248.26L614.7 296.27L607.2 296.27L607.2 248.26Z" id="a1iTFncSs"></path><path d="M63.97 175.37L70.45 172.84L70.45 165.77L60 159.52L53.47 159.52L54.8 179.49L63.97 175.37Z" id="g2eoazhWD"></path><path d="M576.31 175.37L569.83 172.84L569.83 165.77L580.28 159.52L586.81 159.52L585.48 179.49L576.31 175.37Z" id="a29Xth1PQb"></path><path d="M70.45 166.72L58.47 159.52L53.47 159.52" id="a7LjyeJSLg"></path><path d="M586.81 159.52L578.6 159.52L569.83 165.57" id="e6yiJdA01y"></path></defs><g><g><g><use xlink:href="#dCYGODAmr" opacity="1" fill="#85412e" fill-opacity="1"></use></g><g><use xlink:href="#bwUm6Wcgt" opacity="1" fill="#a38273" fill-opacity="1"></use><g><use xlink:href="#bwUm6Wcgt" opacity="1" fill-opacity="0" stroke="#000000" stroke-width="0" stroke-opacity="1"></use></g></g><g><use xlink:href="#e2BwoCrmqM" opacity="1" fill="#b79787" fill-opacity="1"></use></g><g><use xlink:href="#e6BOOmT5eu" opacity="1" fill="#000000" fill-opacity="1"></use></g><g><use xlink:href="#a4YtmovRT" opacity="1" fill="#000000" fill-opacity="1"></use></g><g><use xlink:href="#axv2I7TpO" opacity="1" fill="#f3e9e9" fill-opacity="1"></use></g><g><use xlink:href="#a41GruPKJv" opacity="1" fill="#b79787" fill-opacity="1"></use></g><g><use xlink:href="#b9PkVYjoc" opacity="1" fill="#f3e9e9" fill-opacity="1"></use></g><g><use xlink:href="#b8AdS4Mwkr" opacity="1" fill="#f3e9e9" fill-opacity="1"></use></g><g><use xlink:href="#aER4WDxKF" opacity="1" fill="#f3e9e9" fill-opacity="1"></use></g><g><use xlink:href="#a15fPBMD2e" opacity="1" fill="#f3e9e9" fill-opacity="1"></use></g><g><use xlink:href="#b2VZEat3O5" opacity="1" fill="#f3e9e9" fill-opacity="1"></use><g><use xlink:href="#b2VZEat3O5" opacity="1" fill-opacity="0" stroke="#000000" stroke-width="2" stroke-opacity="1"></use></g></g><g><use xlink:href="#b1DEWTuGlm" opacity="1" fill="#363331" fill-opacity="1"></use></g><g><use xlink:href="#gQFTecLtd" opacity="1" fill="#f3e9e9" fill-opacity="1"></use></g><g><use xlink:href="#knUruNp3" opacity="1" fill="#f3e9e9" fill-opacity="1"></use></g><g><use xlink:href="#d330qIu1U" opacity="1" fill="#f3e9e9" fill-opacity="1"></use></g><g><use xlink:href="#iCl0dhYeb" opacity="1" fill="#f3e9e9" fill-opacity="1"></use></g><g><use xlink:href="#bUBKeBQsq" opacity="1" fill="#f3e9e9" fill-opacity="1"></use></g><g><use xlink:href="#g3lTmIyR7" opacity="1" fill="#f3e9e9" fill-opacity="1"></use></g><g><use xlink:href="#i28cnJrNf2" opacity="1" fill="#f3e9e9" fill-opacity="1"></use></g><g><g><use xlink:href="#f2QVEEGF4d" opacity="1" fill-opacity="0" stroke="#000000" stroke-width="1" stroke-opacity="1"></use></g></g><g><g><use xlink:href="#d1iZsdrAmJ" opacity="1" fill-opacity="0" stroke="#000000" stroke-width="1" stroke-opacity="1"></use></g></g><g><use xlink:href="#f15k6IRrw" opacity="1" fill="#000000" fill-opacity="1"></use><g><use xlink:href="#f15k6IRrw" opacity="1" fill-opacity="0" stroke="#000000" stroke-width="1" stroke-opacity="1"></use></g></g><g><g><use xlink:href="#bemF9YZOR" opacity="1" fill-opacity="0" stroke="#ffffff" stroke-width="1" stroke-opacity="1"></use></g></g><g><g><use xlink:href="#c2EMixN564" opacity="1" fill-opacity="0" stroke="#efe4e4" stroke-width="1" stroke-opacity="1"></use></g></g><g><g><use xlink:href="#adRKu7xJ3" opacity="1" fill-opacity="0" stroke="#efe4e4" stroke-width="1" stroke-opacity="1"></use></g></g><g><g><use xlink:href="#c1DV6vRl1E" opacity="1" fill-opacity="0" stroke="#efe4e4" stroke-width="1" stroke-opacity="1"></use></g></g><g><g><use xlink:href="#b4SiJeN68" opacity="1" fill-opacity="0" stroke="#efe4e4" stroke-width="1" stroke-opacity="1"></use></g></g><g><g><use xlink:href="#b55UjpXCoh" opacity="1" fill-opacity="0" stroke="#efe4e4" stroke-width="1" stroke-opacity="1"></use></g></g><g><use xlink:href="#a4al0SO3Yd" opacity="1" fill="#f3e9e9" fill-opacity="1"></use></g><g><g><use xlink:href="#a1UEXX4qOc" opacity="1" fill-opacity="0" stroke="#000000" stroke-width="1" stroke-opacity="1"></use></g></g><g><g><use xlink:href="#b21Bmehhsa" opacity="1" fill-opacity="0" stroke="#000000" stroke-width="1" stroke-opacity="1"></use></g></g><g><use xlink:href="#hFPIRgwKa" opacity="1" fill="#000000" fill-opacity="1"></use><g><use xlink:href="#hFPIRgwKa" opacity="1" fill-opacity="0" stroke="#000000" stroke-width="1" stroke-opacity="1"></use></g></g><g><g><use xlink:href="#a3CJiDWIh" opacity="1" fill-opacity="0" stroke="#ffffff" stroke-width="1" stroke-opacity="1"></use></g></g><g><g><use xlink:href="#batka5aW0" opacity="1" fill-opacity="0" stroke="#efe4e4" stroke-width="1" stroke-opacity="1"></use></g></g><g><g><use xlink:href="#a15mmdvhU" opacity="1" fill-opacity="0" stroke="#efe4e4" stroke-width="1" stroke-opacity="1"></use></g></g><g><g><use xlink:href="#gglKbt5Aj" opacity="1" fill-opacity="0" stroke="#efe4e4" stroke-width="1" stroke-opacity="1"></use></g></g><g><g><use xlink:href="#b16qmX7pdH" opacity="1" fill-opacity="0" stroke="#efe4e4" stroke-width="1" stroke-opacity="1"></use></g></g><g><g><use xlink:href="#aEmb1vnsR" opacity="1" fill-opacity="0" stroke="#efe4e4" stroke-width="1" stroke-opacity="1"></use></g></g><g><use xlink:href="#b1usLRXbe1" opacity="1" fill="#f3e9e9" fill-opacity="1"></use></g><g><g><use xlink:href="#bjbEhGfzV" opacity="1" fill-opacity="0" stroke="#000000" stroke-width="1" stroke-opacity="1"></use></g></g><g><g><use xlink:href="#b15RHyOAiF" opacity="1" fill-opacity="0" stroke="#000000" stroke-width="1" stroke-opacity="1"></use></g></g><g><use xlink:href="#a2IWjadeFi" opacity="1" fill="#000000" fill-opacity="1"></use><g><use xlink:href="#a2IWjadeFi" opacity="1" fill-opacity="0" stroke="#000000" stroke-width="1" stroke-opacity="1"></use></g></g><g><g><use xlink:href="#bMvbTgK5e" opacity="1" fill-opacity="0" stroke="#ffffff" stroke-width="1" stroke-opacity="1"></use></g></g><g><g><use xlink:href="#a43QThj8p" opacity="1" fill-opacity="0" stroke="#efe4e4" stroke-width="1" stroke-opacity="1"></use></g></g><g><g><use xlink:href="#a1i6H0ktCh" opacity="1" fill-opacity="0" stroke="#efe4e4" stroke-width="1" stroke-opacity="1"></use></g></g><g><g><use xlink:href="#bt9ZILOju" opacity="1" fill-opacity="0" stroke="#efe4e4" stroke-width="1" stroke-opacity="1"></use></g></g><g><g><use xlink:href="#h33gydSoBR" opacity="1" fill-opacity="0" stroke="#efe4e4" stroke-width="1" stroke-opacity="1"></use></g></g><g><g><use xlink:href="#b3h7KgWUkp" opacity="1" fill-opacity="0" stroke="#efe4e4" stroke-width="1" stroke-opacity="1"></use></g></g><g><use xlink:href="#f5dbXYm08w" opacity="1" fill="#f3e9e9" fill-opacity="1"></use></g><g><g><use xlink:href="#bIDpDYXF" opacity="1" fill-opacity="0" stroke="#000000" stroke-width="1" stroke-opacity="1"></use></g></g><g><g><use xlink:href="#a1G5yYwpgo" opacity="1" fill-opacity="0" stroke="#000000" stroke-width="1" stroke-opacity="1"></use></g></g><g><use xlink:href="#a51utCqo0T" opacity="1" fill="#000000" fill-opacity="1"></use><g><use xlink:href="#a51utCqo0T" opacity="1" fill-opacity="0" stroke="#000000" stroke-width="1" stroke-opacity="1"></use></g></g><g><g><use xlink:href="#b5yAPYnjo" opacity="1" fill-opacity="0" stroke="#ffffff" stroke-width="1" stroke-opacity="1"></use></g></g><g><g><use xlink:href="#b8BzLoNiEC" opacity="1" fill-opacity="0" stroke="#efe4e4" stroke-width="1" stroke-opacity="1"></use></g></g><g><g><use xlink:href="#e2nXfG21Ef" opacity="1" fill-opacity="0" stroke="#efe4e4" stroke-width="1" stroke-opacity="1"></use></g></g><g><g><use xlink:href="#d9mDF7Vd4" opacity="1" fill-opacity="0" stroke="#efe4e4" stroke-width="1" stroke-opacity="1"></use></g></g><g><g><use xlink:href="#a1H7ZuWiMV" opacity="1" fill-opacity="0" stroke="#efe4e4" stroke-width="1" stroke-opacity="1"></use></g></g><g><g><use xlink:href="#abidfiRoV" opacity="1" fill-opacity="0" stroke="#efe4e4" stroke-width="1" stroke-opacity="1"></use></g></g><g><use xlink:href="#a3n8UX8BQr" opacity="1" fill="#ffffff" fill-opacity="1"></use></g><g><use xlink:href="#c1E9t0Htp2" opacity="1" fill="#ffffff" fill-opacity="1"></use></g><g><use xlink:href="#b19dInUjKx" opacity="1" fill="#ffffff" fill-opacity="1"></use></g><g><use xlink:href="#a5PSsARCiY" opacity="1" fill="#b79483" fill-opacity="1"></use></g><g><use xlink:href="#c19PXyabYj" opacity="1" fill="#000000" fill-opacity="1"></use></g><g><use xlink:href="#dnRnv5ADI" opacity="1" fill="#000000" fill-opacity="1"></use></g><g><g><use xlink:href="#aFuqZ9x2I" opacity="1" fill-opacity="0" stroke="#392626" stroke-width="2" stroke-opacity="1"></use></g></g><g><g><use xlink:href="#c15StOCu0p" opacity="1" fill-opacity="0" stroke="#392626" stroke-width="1" stroke-opacity="1"></use></g></g><g><g><use xlink:href="#aSB49bKIC" opacity="1" fill-opacity="0" stroke="#392626" stroke-width="1" stroke-opacity="1"></use></g></g><g><g><use xlink:href="#c3IhJBGqzf" opacity="1" fill-opacity="0" stroke="#392626" stroke-width="1" stroke-opacity="1"></use></g></g><g><g><use xlink:href="#b3fZQWsZPY" opacity="1" fill-opacity="0" stroke="#392626" stroke-width="1" stroke-opacity="1"></use></g></g><g><use xlink:href="#bDp8KxhJY" opacity="1" fill="#1e1510" fill-opacity="1"></use></g><g><use xlink:href="#c2fxM31fkw" opacity="1" fill="#f3e9e9" fill-opacity="1"></use></g><g><use xlink:href="#dn2yZWOHJ" opacity="1" fill="#000000" fill-opacity="1"></use><g><use xlink:href="#dn2yZWOHJ" opacity="1" fill-opacity="0" stroke="#000000" stroke-width="1" stroke-opacity="1"></use></g></g><g><g><use xlink:href="#aWwssqcZ4" opacity="1" fill-opacity="0" stroke="#ffffff" stroke-width="1" stroke-opacity="1"></use></g></g><g><g><use xlink:href="#a9f5UIlgD" opacity="1" fill-opacity="0" stroke="#efe4e4" stroke-width="1" stroke-opacity="1"></use></g></g><g><g><use xlink:href="#e3devtF1G1" opacity="1" fill-opacity="0" stroke="#efe4e4" stroke-width="1" stroke-opacity="1"></use></g></g><g><g><use xlink:href="#b6pDRLGtV" opacity="1" fill-opacity="0" stroke="#efe4e4" stroke-width="1" stroke-opacity="1"></use></g></g><g><g><use xlink:href="#i1hNp1HJgT" opacity="1" fill-opacity="0" stroke="#efe4e4" stroke-width="1" stroke-opacity="1"></use></g></g><g><g><use xlink:href="#b2GV2bQc6l" opacity="1" fill-opacity="0" stroke="#efe4e4" stroke-width="1" stroke-opacity="1"></use></g></g><g><use xlink:href="#b1MkaApYax" opacity="1" fill="#f3e9e9" fill-opacity="1"></use></g><g><use xlink:href="#i1ogTHiQw" opacity="1" fill="#000000" fill-opacity="1"></use><g><use xlink:href="#i1ogTHiQw" opacity="1" fill-opacity="0" stroke="#000000" stroke-width="1" stroke-opacity="1"></use></g></g><g><g><use xlink:href="#buuUXIazG" opacity="1" fill-opacity="0" stroke="#ffffff" stroke-width="1" stroke-opacity="1"></use></g></g><g><g><use xlink:href="#a11zv0mhZM" opacity="1" fill-opacity="0" stroke="#efe4e4" stroke-width="1" stroke-opacity="1"></use></g></g><g><g><use xlink:href="#c89myjEtX" opacity="1" fill-opacity="0" stroke="#efe4e4" stroke-width="1" stroke-opacity="1"></use></g></g><g><g><use xlink:href="#bj1pN6MOg" opacity="1" fill-opacity="0" stroke="#efe4e4" stroke-width="1" stroke-opacity="1"></use></g></g><g><g><use xlink:href="#f9ebsTbiL" opacity="1" fill-opacity="0" stroke="#efe4e4" stroke-width="1" stroke-opacity="1"></use></g></g><g><g><use xlink:href="#b1LwuDN0x" opacity="1" fill-opacity="0" stroke="#efe4e4" stroke-width="1" stroke-opacity="1"></use></g></g><g><use xlink:href="#a13V53atjR" opacity="1" fill="#be987c" fill-opacity="1"></use></g><g><use xlink:href="#d7piRpiwO" opacity="1" fill="#be987c" fill-opacity="1"></use></g><g><g><use xlink:href="#e2Zljq8gDY" opacity="1" fill-opacity="0" stroke="#5c2727" stroke-width="1" stroke-opacity="1"></use></g></g><g><g><use xlink:href="#e2LxmSH0sP" opacity="1" fill-opacity="0" stroke="#5c2727" stroke-width="1" stroke-opacity="1"></use></g></g><g><g><use xlink:href="#a4WkeZCqWD" opacity="1" fill-opacity="0" stroke="#5c2727" stroke-width="1" stroke-opacity="1"></use></g></g><g><g><use xlink:href="#jM1XDFBk" opacity="1" fill-opacity="0" stroke="#5c2727" stroke-width="1" stroke-opacity="1"></use></g></g><g><g><use xlink:href="#c36m3g4Lj" opacity="1" fill-opacity="0" stroke="#5c2727" stroke-width="1" stroke-opacity="1"></use></g></g><g><g><use xlink:href="#e1ARoIic5" opacity="1" fill-opacity="0" stroke="#5c2727" stroke-width="1" stroke-opacity="1"></use></g></g><g><g><use xlink:href="#j3AirM6IRG" opacity="1" fill-opacity="0" stroke="#5c2727" stroke-width="1" stroke-opacity="1"></use></g></g><g><g><use xlink:href="#brDrDyDjO" opacity="1" fill-opacity="0" stroke="#5c2727" stroke-width="1" stroke-opacity="1"></use></g></g><g><use xlink:href="#fPv7BOEzW" opacity="1" fill="#f3e9e9" fill-opacity="1"></use></g><g><use xlink:href="#a69puuSCtA" opacity="1" fill="#000000" fill-opacity="1"></use><g><use xlink:href="#a69puuSCtA" opacity="1" fill-opacity="0" stroke="#000000" stroke-width="1" stroke-opacity="1"></use></g></g><g><g><use xlink:href="#a3JM5M9b2" opacity="1" fill-opacity="0" stroke="#ffffff" stroke-width="1" stroke-opacity="1"></use></g></g><g><g><use xlink:href="#a3LQbJ5QuR" opacity="1" fill-opacity="0" stroke="#efe4e4" stroke-width="1" stroke-opacity="1"></use></g></g><g><g><use xlink:href="#g5ZetQdLA" opacity="1" fill-opacity="0" stroke="#efe4e4" stroke-width="1" stroke-opacity="1"></use></g></g><g><g><use xlink:href="#d81RHy9qn" opacity="1" fill-opacity="0" stroke="#efe4e4" stroke-width="1" stroke-opacity="1"></use></g></g><g><g><use xlink:href="#a1Wpr7VKCv" opacity="1" fill-opacity="0" stroke="#efe4e4" stroke-width="1" stroke-opacity="1"></use></g></g><g><g><use xlink:href="#fjidqnE6" opacity="1" fill-opacity="0" stroke="#efe4e4" stroke-width="1" stroke-opacity="1"></use></g></g><g><use xlink:href="#b36lXI5wBP" opacity="1" fill="#f3e9e9" fill-opacity="1"></use></g><g><use xlink:href="#caV4wjcSo" opacity="1" fill="#000000" fill-opacity="1"></use><g><use xlink:href="#caV4wjcSo" opacity="1" fill-opacity="0" stroke="#000000" stroke-width="1" stroke-opacity="1"></use></g></g><g><g><use xlink:href="#a1xt7iOLTg" opacity="1" fill-opacity="0" stroke="#ffffff" stroke-width="1" stroke-opacity="1"></use></g></g><g><g><use xlink:href="#a4moGKkI4Z" opacity="1" fill-opacity="0" stroke="#efe4e4" stroke-width="1" stroke-opacity="1"></use></g></g><g><g><use xlink:href="#a91zJUwRDY" opacity="1" fill-opacity="0" stroke="#efe4e4" stroke-width="1" stroke-opacity="1"></use></g></g><g><g><use xlink:href="#d1GqWeatKE" opacity="1" fill-opacity="0" stroke="#efe4e4" stroke-width="1" stroke-opacity="1"></use></g></g><g><g><use xlink:href="#gv7ni1O29" opacity="1" fill-opacity="0" stroke="#efe4e4" stroke-width="1" stroke-opacity="1"></use></g></g><g><g><use xlink:href="#bWNPnuZmu" opacity="1" fill-opacity="0" stroke="#efe4e4" stroke-width="1" stroke-opacity="1"></use></g></g><g><use xlink:href="#bq0tnKI4A" opacity="1" fill="#f3e9e9" fill-opacity="1"></use></g><g><use xlink:href="#b1bxqKXPw6" opacity="1" fill="#000000" fill-opacity="1"></use><g><use xlink:href="#b1bxqKXPw6" opacity="1" fill-opacity="0" stroke="#000000" stroke-width="1" stroke-opacity="1"></use></g></g><g><g><use xlink:href="#a3VADJGocF" opacity="1" fill-opacity="0" stroke="#ffffff" stroke-width="1" stroke-opacity="1"></use></g></g><g><g><use xlink:href="#i1EOvqYKRd" opacity="1" fill-opacity="0" stroke="#efe4e4" stroke-width="1" stroke-opacity="1"></use></g></g><g><g><use xlink:href="#a2Tsu8Y3yw" opacity="1" fill-opacity="0" stroke="#efe4e4" stroke-width="1" stroke-opacity="1"></use></g></g><g><g><use xlink:href="#b1rugMwD1" opacity="1" fill-opacity="0" stroke="#efe4e4" stroke-width="1" stroke-opacity="1"></use></g></g><g><g><use xlink:href="#abHGy1XLU" opacity="1" fill-opacity="0" stroke="#efe4e4" stroke-width="1" stroke-opacity="1"></use></g></g><g><g><use xlink:href="#cksGE5a6p" opacity="1" fill-opacity="0" stroke="#efe4e4" stroke-width="1" stroke-opacity="1"></use></g></g><g><use xlink:href="#b1HkBOWSx9" opacity="1" fill="#f3e9e9" fill-opacity="1"></use></g><g><use xlink:href="#a3D0RxZUMn" opacity="1" fill="#000000" fill-opacity="1"></use><g><use xlink:href="#a3D0RxZUMn" opacity="1" fill-opacity="0" stroke="#000000" stroke-width="1" stroke-opacity="1"></use></g></g><g><g><use xlink:href="#g9TYMaqyQ" opacity="1" fill-opacity="0" stroke="#ffffff" stroke-width="1" stroke-opacity="1"></use></g></g><g><g><use xlink:href="#bSvyyzgio" opacity="1" fill-opacity="0" stroke="#efe4e4" stroke-width="1" stroke-opacity="1"></use></g></g><g><g><use xlink:href="#b19u2UI2CP" opacity="1" fill-opacity="0" stroke="#efe4e4" stroke-width="1" stroke-opacity="1"></use></g></g><g><g><use xlink:href="#b1hVuoYpdJ" opacity="1" fill-opacity="0" stroke="#efe4e4" stroke-width="1" stroke-opacity="1"></use></g></g><g><g><use xlink:href="#b2MkuGVLlo" opacity="1" fill-opacity="0" stroke="#efe4e4" stroke-width="1" stroke-opacity="1"></use></g></g><g><g><use xlink:href="#f1IodLz7I" opacity="1" fill-opacity="0" stroke="#efe4e4" stroke-width="1" stroke-opacity="1"></use></g></g><g><use xlink:href="#h2Xz7XBZ6Y" opacity="1" fill="#f3e9e9" fill-opacity="1"></use></g><g><use xlink:href="#a7pPOLwfT" opacity="1" fill="#000000" fill-opacity="1"></use><g><use xlink:href="#a7pPOLwfT" opacity="1" fill-opacity="0" stroke="#000000" stroke-width="1" stroke-opacity="1"></use></g></g><g><g><use xlink:href="#b89nvs4TJu" opacity="1" fill-opacity="0" stroke="#ffffff" stroke-width="1" stroke-opacity="1"></use></g></g><g><g><use xlink:href="#a1UqZ7aE9B" opacity="1" fill-opacity="0" stroke="#efe4e4" stroke-width="1" stroke-opacity="1"></use></g></g><g><g><use xlink:href="#a62AslM7Lz" opacity="1" fill-opacity="0" stroke="#efe4e4" stroke-width="1" stroke-opacity="1"></use></g></g><g><g><use xlink:href="#c2v9CfokSd" opacity="1" fill-opacity="0" stroke="#efe4e4" stroke-width="1" stroke-opacity="1"></use></g></g><g><g><use xlink:href="#c1456sklod" opacity="1" fill-opacity="0" stroke="#efe4e4" stroke-width="1" stroke-opacity="1"></use></g></g><g><g><use xlink:href="#b1liUi3V6Q" opacity="1" fill-opacity="0" stroke="#efe4e4" stroke-width="1" stroke-opacity="1"></use></g></g><g><use xlink:href="#d6zv9ePCL4" opacity="1" fill="#f3e9e9" fill-opacity="1"></use></g><g><use xlink:href="#baKuq9dGx" opacity="1" fill="#000000" fill-opacity="1"></use><g><use xlink:href="#baKuq9dGx" opacity="1" fill-opacity="0" stroke="#000000" stroke-width="1" stroke-opacity="1"></use></g></g><g><g><use xlink:href="#diMqRzUUY" opacity="1" fill-opacity="0" stroke="#ffffff" stroke-width="1" stroke-opacity="1"></use></g></g><g><g><use xlink:href="#c5LWEpC3vV" opacity="1" fill-opacity="0" stroke="#efe4e4" stroke-width="1" stroke-opacity="1"></use></g></g><g><g><use xlink:href="#b29WJYPA09" opacity="1" fill-opacity="0" stroke="#efe4e4" stroke-width="1" stroke-opacity="1"></use></g></g><g><g><use xlink:href="#ezuVGWvq" opacity="1" fill-opacity="0" stroke="#efe4e4" stroke-width="1" stroke-opacity="1"></use></g></g><g><g><use xlink:href="#a2IHh0IWnl" opacity="1" fill-opacity="0" stroke="#efe4e4" stroke-width="1" stroke-opacity="1"></use></g></g><g><g><use xlink:href="#a3xC7LLJxh" opacity="1" fill-opacity="0" stroke="#efe4e4" stroke-width="1" stroke-opacity="1"></use></g></g><g><use xlink:href="#e5FjTvrwl" opacity="1" fill="#f3e9e9" fill-opacity="1"></use></g><g><use xlink:href="#e72lyriVby" opacity="1" fill="#000000" fill-opacity="1"></use><g><use xlink:href="#e72lyriVby" opacity="1" fill-opacity="0" stroke="#000000" stroke-width="1" stroke-opacity="1"></use></g></g><g><g><use xlink:href="#a1yGIWoBVD" opacity="1" fill-opacity="0" stroke="#ffffff" stroke-width="1" stroke-opacity="1"></use></g></g><g><g><use xlink:href="#a1OoGR487G" opacity="1" fill-opacity="0" stroke="#efe4e4" stroke-width="1" stroke-opacity="1"></use></g></g><g><g><use xlink:href="#aMGRGRJJ2" opacity="1" fill-opacity="0" stroke="#efe4e4" stroke-width="1" stroke-opacity="1"></use></g></g><g><g><use xlink:href="#h1CYbIDAaG" opacity="1" fill-opacity="0" stroke="#efe4e4" stroke-width="1" stroke-opacity="1"></use></g></g><g><g><use xlink:href="#b1ssHw1078" opacity="1" fill-opacity="0" stroke="#efe4e4" stroke-width="1" stroke-opacity="1"></use></g></g><g><g><use xlink:href="#l7XkI7Ov5W" opacity="1" fill-opacity="0" stroke="#efe4e4" stroke-width="1" stroke-opacity="1"></use></g></g><g><use xlink:href="#e4Tp0ft6R9" opacity="1" fill="#f3e9e9" fill-opacity="1"></use></g><g><use xlink:href="#c4TpM7LQLh" opacity="1" fill="#f3e9e9" fill-opacity="1"></use></g><g><use xlink:href="#a91C93xHQ6" opacity="1" fill="#f3e9e9" fill-opacity="1"></use></g><g><use xlink:href="#a1mlC2a51h" opacity="1" fill="#000000" fill-opacity="1"></use><g><use xlink:href="#a1mlC2a51h" opacity="1" fill-opacity="0" stroke="#000000" stroke-width="1" stroke-opacity="1"></use></g></g><g><g><use xlink:href="#e1A76ps3cX" opacity="1" fill-opacity="0" stroke="#ffffff" stroke-width="1" stroke-opacity="1"></use></g></g><g><g><use xlink:href="#b1S6QsU6ue" opacity="1" fill-opacity="0" stroke="#efe4e4" stroke-width="1" stroke-opacity="1"></use></g></g><g><g><use xlink:href="#ckS6F01Vn" opacity="1" fill-opacity="0" stroke="#efe4e4" stroke-width="1" stroke-opacity="1"></use></g></g><g><g><use xlink:href="#a7tSvQgMc3" opacity="1" fill-opacity="0" stroke="#efe4e4" stroke-width="1" stroke-opacity="1"></use></g></g><g><g><use xlink:href="#d8Qk0ZNSnd" opacity="1" fill-opacity="0" stroke="#efe4e4" stroke-width="1" stroke-opacity="1"></use></g></g><g><g><use xlink:href="#a11lqKIYwM" opacity="1" fill-opacity="0" stroke="#efe4e4" stroke-width="1" stroke-opacity="1"></use></g></g><g><use xlink:href="#absBTPZYX0" opacity="1" fill="#f3e9e9" fill-opacity="1"></use></g><g><use xlink:href="#bhFqF7PMa" opacity="1" fill="#f3e9e9" fill-opacity="1"></use></g><g><use xlink:href="#aVLtDmmJx" opacity="1" fill="#f3e9e9" fill-opacity="1"></use></g><g><use xlink:href="#a69A7oSVU" opacity="1" fill="#000000" fill-opacity="1"></use><g><use xlink:href="#a69A7oSVU" opacity="1" fill-opacity="0" stroke="#000000" stroke-width="1" stroke-opacity="1"></use></g></g><g><g><use xlink:href="#aqQsct4tQ" opacity="1" fill-opacity="0" stroke="#ffffff" stroke-width="1" stroke-opacity="1"></use></g></g><g><g><use xlink:href="#acVQ4X31X" opacity="1" fill-opacity="0" stroke="#efe4e4" stroke-width="1" stroke-opacity="1"></use></g></g><g><g><use xlink:href="#f1PTXHSY0" opacity="1" fill-opacity="0" stroke="#efe4e4" stroke-width="1" stroke-opacity="1"></use></g></g><g><g><use xlink:href="#dQ1jahstx" opacity="1" fill-opacity="0" stroke="#efe4e4" stroke-width="1" stroke-opacity="1"></use></g></g><g><g><use xlink:href="#a2Na7zOj10" opacity="1" fill-opacity="0" stroke="#efe4e4" stroke-width="1" stroke-opacity="1"></use></g></g><g><g><use xlink:href="#e16BVA2Ty" opacity="1" fill-opacity="0" stroke="#efe4e4" stroke-width="1" stroke-opacity="1"></use></g></g><g><use xlink:href="#d2KQGqDyDa" opacity="1" fill="#f3e9e9" fill-opacity="1"></use></g><g><use xlink:href="#a2q6bONRIS" opacity="1" fill="#f3e9e9" fill-opacity="1"></use></g><g><use xlink:href="#bRMUyahOH" opacity="1" fill="#f3e9e9" fill-opacity="1"></use></g><g><use xlink:href="#d1z361dddW" opacity="1" fill="#000000" fill-opacity="1"></use><g><use xlink:href="#d1z361dddW" opacity="1" fill-opacity="0" stroke="#000000" stroke-width="1" stroke-opacity="1"></use></g></g><g><g><use xlink:href="#j40n1m8ARn" opacity="1" fill-opacity="0" stroke="#ffffff" stroke-width="1" stroke-opacity="1"></use></g></g><g><g><use xlink:href="#c25k0Zyuws" opacity="1" fill-opacity="0" stroke="#efe4e4" stroke-width="1" stroke-opacity="1"></use></g></g><g><g><use xlink:href="#c8dKARTvt" opacity="1" fill-opacity="0" stroke="#efe4e4" stroke-width="1" stroke-opacity="1"></use></g></g><g><g><use xlink:href="#e3IiXepfCK" opacity="1" fill-opacity="0" stroke="#efe4e4" stroke-width="1" stroke-opacity="1"></use></g></g><g><g><use xlink:href="#hXMCAh1E" opacity="1" fill-opacity="0" stroke="#efe4e4" stroke-width="1" stroke-opacity="1"></use></g></g><g><g><use xlink:href="#a1sBSgIhXN" opacity="1" fill-opacity="0" stroke="#efe4e4" stroke-width="1" stroke-opacity="1"></use></g></g><g><use xlink:href="#bftwzN7h" opacity="1" fill="#f3e9e9" fill-opacity="1"></use></g><g><use xlink:href="#f1OQ6unFlf" opacity="1" fill="#f3e9e9" fill-opacity="1"></use></g><g><use xlink:href="#jnlOMxOGN" opacity="1" fill="#f3e9e9" fill-opacity="1"></use></g><g><use xlink:href="#a2gCgrb6wB" opacity="1" fill="#000000" fill-opacity="1"></use><g><use xlink:href="#a2gCgrb6wB" opacity="1" fill-opacity="0" stroke="#000000" stroke-width="1" stroke-opacity="1"></use></g></g><g><g><use xlink:href="#aduKvM2B4" opacity="1" fill-opacity="0" stroke="#ffffff" stroke-width="1" stroke-opacity="1"></use></g></g><g><g><use xlink:href="#epFZo0r2v" opacity="1" fill-opacity="0" stroke="#efe4e4" stroke-width="1" stroke-opacity="1"></use></g></g><g><g><use xlink:href="#c19eNLadOy" opacity="1" fill-opacity="0" stroke="#efe4e4" stroke-width="1" stroke-opacity="1"></use></g></g><g><g><use xlink:href="#a6TL5zZPV7" opacity="1" fill-opacity="0" stroke="#efe4e4" stroke-width="1" stroke-opacity="1"></use></g></g><g><g><use xlink:href="#c2kfOb4Eh" opacity="1" fill-opacity="0" stroke="#efe4e4" stroke-width="1" stroke-opacity="1"></use></g></g><g><g><use xlink:href="#b18m2hP33Z" opacity="1" fill-opacity="0" stroke="#efe4e4" stroke-width="1" stroke-opacity="1"></use></g></g><g><use xlink:href="#a320sn4EPh" opacity="1" fill="#f3e9e9" fill-opacity="1"></use></g><g><use xlink:href="#b1BIowtFeP" opacity="1" fill="#f3e9e9" fill-opacity="1"></use></g><g><use xlink:href="#hZ8betk82" opacity="1" fill="#f3e9e9" fill-opacity="1"></use></g><g><use xlink:href="#a1Ei5gFixN" opacity="1" fill="#000000" fill-opacity="1"></use><g><use xlink:href="#a1Ei5gFixN" opacity="1" fill-opacity="0" stroke="#000000" stroke-width="1" stroke-opacity="1"></use></g></g><g><g><use xlink:href="#bs2fcKPwE" opacity="1" fill-opacity="0" stroke="#ffffff" stroke-width="1" stroke-opacity="1"></use></g></g><g><g><use xlink:href="#a3JqL4gd3k" opacity="1" fill-opacity="0" stroke="#efe4e4" stroke-width="1" stroke-opacity="1"></use></g></g><g><g><use xlink:href="#d68tKvktkN" opacity="1" fill-opacity="0" stroke="#efe4e4" stroke-width="1" stroke-opacity="1"></use></g></g><g><g><use xlink:href="#a2d63P7ww8" opacity="1" fill-opacity="0" stroke="#efe4e4" stroke-width="1" stroke-opacity="1"></use></g></g><g><g><use xlink:href="#cWq6tpBrh" opacity="1" fill-opacity="0" stroke="#efe4e4" stroke-width="1" stroke-opacity="1"></use></g></g><g><g><use xlink:href="#c31GHkf4N" opacity="1" fill-opacity="0" stroke="#efe4e4" stroke-width="1" stroke-opacity="1"></use></g></g><g><use xlink:href="#aBK1kk1v0" opacity="1" fill="#f3e9e9" fill-opacity="1"></use></g><g><use xlink:href="#befKFtxul" opacity="1" fill="#f3e9e9" fill-opacity="1"></use></g><g><use xlink:href="#a62cu8MWY8" opacity="1" fill="#f3e9e9" fill-opacity="1"></use></g><g><use xlink:href="#b1Uev8bi11" opacity="1" fill="#000000" fill-opacity="1"></use><g><use xlink:href="#b1Uev8bi11" opacity="1" fill-opacity="0" stroke="#000000" stroke-width="1" stroke-opacity="1"></use></g></g><g><g><use xlink:href="#adXWoiHZa" opacity="1" fill-opacity="0" stroke="#ffffff" stroke-width="1" stroke-opacity="1"></use></g></g><g><g><use xlink:href="#e1k41EEQ42" opacity="1" fill-opacity="0" stroke="#efe4e4" stroke-width="1" stroke-opacity="1"></use></g></g><g><g><use xlink:href="#b1hgYd5D0E" opacity="1" fill-opacity="0" stroke="#efe4e4" stroke-width="1" stroke-opacity="1"></use></g></g><g><g><use xlink:href="#b5xSYyydOi" opacity="1" fill-opacity="0" stroke="#efe4e4" stroke-width="1" stroke-opacity="1"></use></g></g><g><g><use xlink:href="#cAjwHdzrz" opacity="1" fill-opacity="0" stroke="#efe4e4" stroke-width="1" stroke-opacity="1"></use></g></g><g><g><use xlink:href="#evlnIdtZt" opacity="1" fill-opacity="0" stroke="#efe4e4" stroke-width="1" stroke-opacity="1"></use></g></g><g><use xlink:href="#aaOeCVNch6" opacity="1" fill="#f3e9e9" fill-opacity="1"></use></g><g><use xlink:href="#a1aDZU8qh5" opacity="1" fill="#f3e9e9" fill-opacity="1"></use></g><g><use xlink:href="#b1VNwo6Jbt" opacity="1" fill="#f3e9e9" fill-opacity="1"></use></g><g><use xlink:href="#aKGeOAFXm" opacity="1" fill="#000000" fill-opacity="1"></use><g><use xlink:href="#aKGeOAFXm" opacity="1" fill-opacity="0" stroke="#000000" stroke-width="1" stroke-opacity="1"></use></g></g><g><g><use xlink:href="#cxsNpohY" opacity="1" fill-opacity="0" stroke="#ffffff" stroke-width="1" stroke-opacity="1"></use></g></g><g><g><use xlink:href="#b1CPJMzSn" opacity="1" fill-opacity="0" stroke="#efe4e4" stroke-width="1" stroke-opacity="1"></use></g></g><g><g><use xlink:href="#c4JT46CvX3" opacity="1" fill-opacity="0" stroke="#efe4e4" stroke-width="1" stroke-opacity="1"></use></g></g><g><g><use xlink:href="#d3SPgNkB3w" opacity="1" fill-opacity="0" stroke="#efe4e4" stroke-width="1" stroke-opacity="1"></use></g></g><g><g><use xlink:href="#c3gUGE2MpT" opacity="1" fill-opacity="0" stroke="#efe4e4" stroke-width="1" stroke-opacity="1"></use></g></g><g><g><use xlink:href="#aalEmIIfN" opacity="1" fill-opacity="0" stroke="#efe4e4" stroke-width="1" stroke-opacity="1"></use></g></g><g><use xlink:href="#a7tn1eiw2" opacity="1" fill="#f3e9e9" fill-opacity="1"></use></g><g><use xlink:href="#a1iTFncSs" opacity="1" fill="#f3e9e9" fill-opacity="1"></use></g><g><use xlink:href="#g2eoazhWD" opacity="1" fill="#85412e" fill-opacity="1"></use><g><use xlink:href="#g2eoazhWD" opacity="1" fill-opacity="0" stroke="#dea4a4" stroke-width="0" stroke-opacity="1"></use></g></g><g><use xlink:href="#a29Xth1PQb" opacity="1" fill="#85412e" fill-opacity="1"></use><g><use xlink:href="#a29Xth1PQb" opacity="1" fill-opacity="0" stroke="#dea4a4" stroke-width="0" stroke-opacity="1"></use></g></g><g><g><use xlink:href="#a7LjyeJSLg" opacity="1" fill-opacity="0" stroke="#2f2d2d" stroke-width="2" stroke-opacity="1"></use></g></g><g><g><use xlink:href="#e6yiJdA01y" opacity="1" fill-opacity="0" stroke="#2f2b2b" stroke-width="2" stroke-opacity="1"></use></g></g></g></g></svg>